<svg width="38" height="32" viewBox="0 0 38 32" fill="none" xmlns="http://www.w3.org/2000/svg">
<path fill-rule="evenodd" clip-rule="evenodd" d="M27.3672 0.0716139C25.9352 0.539393 25.1166 1.80237 25.504 2.9462C25.6802 3.46638 25.9954 3.78396 27.6895 5.14817L29.1828 6.35059L25.2653 6.37515C23.1107 6.3887 18.0372 6.36101 13.9909 6.31372C9.94455 6.26642 5.53038 6.22255 4.1816 6.21628C1.74422 6.20491 1.72691 6.20593 1.33699 6.37872C0.137062 6.91041 -0.354368 8.4498 0.275283 9.70411C0.547119 10.2456 0.890666 10.5526 1.46919 10.771C1.86461 10.9202 2.03902 10.9271 6.8197 10.9826C9.53769 11.0142 14.7377 11.0788 18.3753 11.1263C22.0129 11.1738 25.8502 11.1903 26.9027 11.163C27.9552 11.1357 28.8163 11.1348 28.8163 11.1608C28.8163 11.1869 28.2771 11.7587 27.6181 12.4316C26.2824 13.7955 26.0414 14.106 25.8701 14.6841C25.3693 16.3731 27.2232 18.1851 28.8989 17.6446C29.2714 17.5244 29.4853 17.3319 31.9745 14.8761C33.4459 13.4243 35.3125 11.6364 36.1225 10.9028C37.8367 9.35045 37.9877 9.14159 37.9915 8.31819C37.9962 7.29562 37.4148 6.57264 35.3967 5.09162C33.96 4.0372 31.7664 2.33239 30.3768 1.19023C29.283 0.29111 28.8306 0.0488771 28.1661 0.00653726C27.8594 -0.0130659 27.5489 0.0122215 27.3672 0.0716139ZM9.22238 14.3879C8.78654 14.5406 8.607 14.6653 7.4142 15.6436C6.08966 16.73 4.16719 18.2189 2.67276 19.3157C1.92465 19.8648 1.13136 20.5008 0.909913 20.7291C-0.232273 21.9063 -0.300566 23.0689 0.713059 24.0801C0.944989 24.3115 1.8872 25.1907 2.80682 26.0337C3.72644 26.8768 5.38175 28.4764 6.4853 29.5884C8.76707 31.8877 8.91421 31.9962 9.75505 31.9999C10.1737 32.0018 10.3551 31.9637 10.684 31.8048C11.4286 31.4451 11.9402 30.8315 12.1431 30.0551C12.4157 29.0113 12.1441 28.4809 10.4641 26.7776C9.76761 26.0713 9.19771 25.4787 9.19771 25.4608C9.19771 25.4428 12.7675 25.4085 17.1306 25.3846C29.1973 25.3183 35.9739 25.2106 36.4465 25.0774C36.9577 24.9333 37.5777 24.3813 37.8139 23.86C38.054 23.3301 38.0634 22.3233 37.8328 21.8274C37.6513 21.437 37.2273 20.9532 36.8905 20.7524C36.3358 20.4215 36.4247 20.4231 25.6814 20.5558C20.1099 20.6247 14.0346 20.6703 12.1805 20.6574L8.80965 20.6339L10.3599 19.3832C11.2125 18.6954 11.9823 18.0559 12.0704 17.9622C12.6082 17.3906 12.7459 16.4541 12.3955 15.7513C11.8277 14.613 10.3689 13.9862 9.22238 14.3879Z" fill="black"/>
</svg>
